<svg xmlns="http://www.w3.org/2000/svg" width="184" height="184" viewBox="0 0 184 184"><defs><clipPath id="zjbma"><path fill="#fff" d="M91.921 60.381a1.4 1.4 0 1 1 0 2.8 1.4 1.4 0 0 1 0-2.8zm0 60.2a1.4 1.4 0 1 1 0 2.8 1.4 1.4 0 0 1 0-2.8zm8.155-59.124a1.4 1.4 0 1 1-.724 2.705 1.4 1.4 0 0 1 .724-2.705zm-15.58 58.149a1.4 1.4 0 1 1-.726 2.704 1.4 1.4 0 0 1 .725-2.704zm23.179-54.999a1.4 1.4 0 1 1-1.4 2.425 1.4 1.4 0 0 1 1.4-2.425zm-30.1 52.135a1.4 1.4 0 1 1-1.4 2.425 1.4 1.4 0 0 1 1.4-2.425zm36.624-47.126a1.4 1.4 0 1 1-1.98 1.98 1.4 1.4 0 0 1 1.98-1.98zm-42.568 42.568a1.4 1.4 0 1 1-1.98 1.98 1.4 1.4 0 0 1 1.98-1.98zm47.574-36.04a1.4 1.4 0 1 1-2.425 1.4 1.4 1.4 0 0 1 2.425-1.4zm-52.135 30.1a1.4 1.4 0 1 1-2.426 1.4 1.4 1.4 0 0 1 2.426-1.4zm55.28-22.5a1.4 1.4 0 1 1-2.704.724 1.4 1.4 0 0 1 2.704-.724zm-58.148 15.58a1.4 1.4 0 1 1-2.705.725 1.4 1.4 0 0 1 2.705-.724zm59.22-7.425a1.4 1.4 0 1 1-2.8 0 1.4 1.4 0 0 1 2.8 0zm-60.2 0a1.4 1.4 0 1 1-2.8 0 1.4 1.4 0 0 1 2.8 0zm59.124 8.155a1.4 1.4 0 1 1-2.704-.724 1.4 1.4 0 0 1 2.704.724zm-58.149-15.58a1.4 1.4 0 1 1-2.705-.726 1.4 1.4 0 0 1 2.705.725zm54.999 23.179a1.4 1.4 0 1 1-2.425-1.4 1.4 1.4 0 0 1 2.425 1.4zm-52.135-30.1a1.4 1.4 0 1 1-2.425-1.4 1.4 1.4 0 0 1 2.425 1.4zm47.126 36.624a1.4 1.4 0 1 1-1.98-1.98 1.4 1.4 0 0 1 1.98 1.98zM71.619 71.609a1.4 1.4 0 1 1-1.98-1.98 1.4 1.4 0 0 1 1.98 1.98zm36.04 47.574a1.4 1.4 0 1 1-1.4-2.425 1.4 1.4 0 0 1 1.4 2.425zm-30.1-52.135a1.4 1.4 0 1 1-1.4-2.425 1.4 1.4 0 0 1 1.4 2.425zm22.5 55.28a1.4 1.4 0 1 1-.724-2.704 1.4 1.4 0 0 1 .724 2.704zM84.48 64.18a1.4 1.4 0 1 1-.725-2.705 1.4 1.4 0 0 1 .724 2.705z"/></clipPath><clipPath id="zjbmb"><path fill="#fff" d="M74 93v-2h17V68h2v25z"/></clipPath><clipPath id="zjbmc"><path fill="#fff" d="M92.021 88.5a3.5 3.5 0 1 1 0 7 3.5 3.5 0 0 1 0-7z"/></clipPath></defs><g><g><path fill="#030303" d="M91.921 60.381a1.4 1.4 0 1 1 0 2.8 1.4 1.4 0 0 1 0-2.8zm0 60.2a1.4 1.4 0 1 1 0 2.8 1.4 1.4 0 0 1 0-2.8zm8.155-59.124a1.4 1.4 0 1 1-.724 2.705 1.4 1.4 0 0 1 .724-2.705zm-15.58 58.149a1.4 1.4 0 1 1-.726 2.704 1.4 1.4 0 0 1 .725-2.704zm23.179-54.999a1.4 1.4 0 1 1-1.4 2.425 1.4 1.4 0 0 1 1.4-2.425zm-30.1 52.135a1.4 1.4 0 1 1-1.4 2.425 1.4 1.4 0 0 1 1.4-2.425zm36.624-47.126a1.4 1.4 0 1 1-1.98 1.98 1.4 1.4 0 0 1 1.98-1.98zm-42.568 42.568a1.4 1.4 0 1 1-1.98 1.98 1.4 1.4 0 0 1 1.98-1.98zm47.574-36.04a1.4 1.4 0 1 1-2.425 1.4 1.4 1.4 0 0 1 2.425-1.4zm-52.135 30.1a1.4 1.4 0 1 1-2.426 1.4 1.4 1.4 0 0 1 2.426-1.4zm55.28-22.5a1.4 1.4 0 1 1-2.704.724 1.4 1.4 0 0 1 2.704-.724zm-58.148 15.58a1.4 1.4 0 1 1-2.705.725 1.4 1.4 0 0 1 2.705-.724zm59.22-7.425a1.4 1.4 0 1 1-2.8 0 1.4 1.4 0 0 1 2.8 0zm-60.2 0a1.4 1.4 0 1 1-2.8 0 1.4 1.4 0 0 1 2.8 0zm59.124 8.155a1.4 1.4 0 1 1-2.704-.724 1.4 1.4 0 0 1 2.704.724zm-58.149-15.58a1.4 1.4 0 1 1-2.705-.726 1.4 1.4 0 0 1 2.705.725zm54.999 23.179a1.4 1.4 0 1 1-2.425-1.4 1.4 1.4 0 0 1 2.425 1.4zm-52.135-30.1a1.4 1.4 0 1 1-2.425-1.4 1.4 1.4 0 0 1 2.425 1.4zm47.126 36.624a1.4 1.4 0 1 1-1.98-1.98 1.4 1.4 0 0 1 1.98 1.98zM71.619 71.609a1.4 1.4 0 1 1-1.98-1.98 1.4 1.4 0 0 1 1.98 1.98zm36.04 47.574a1.4 1.4 0 1 1-1.4-2.425 1.4 1.4 0 0 1 1.4 2.425zm-30.1-52.135a1.4 1.4 0 1 1-1.4-2.425 1.4 1.4 0 0 1 1.4 2.425zm22.5 55.28a1.4 1.4 0 1 1-.724-2.704 1.4 1.4 0 0 1 .724 2.704zM84.48 64.18a1.4 1.4 0 1 1-.725-2.705 1.4 1.4 0 0 1 .724 2.705z"/><path fill="none" stroke="#fff" stroke-miterlimit="20" stroke-width="6" d="M91.921 60.381a1.4 1.4 0 1 1 0 2.8 1.4 1.4 0 0 1 0-2.8zm0 60.2a1.4 1.4 0 1 1 0 2.8 1.4 1.4 0 0 1 0-2.8zm8.155-59.124a1.4 1.4 0 1 1-.724 2.705 1.4 1.4 0 0 1 .724-2.705zm-15.58 58.149a1.4 1.4 0 1 1-.726 2.704 1.4 1.4 0 0 1 .725-2.704zm23.179-54.999a1.4 1.4 0 1 1-1.4 2.425 1.4 1.4 0 0 1 1.4-2.425zm-30.1 52.135a1.4 1.4 0 1 1-1.4 2.425 1.4 1.4 0 0 1 1.4-2.425zm36.624-47.126a1.4 1.4 0 1 1-1.98 1.98 1.4 1.4 0 0 1 1.98-1.98zm-42.568 42.568a1.4 1.4 0 1 1-1.98 1.98 1.4 1.4 0 0 1 1.98-1.98zm47.574-36.04a1.4 1.4 0 1 1-2.425 1.4 1.4 1.4 0 0 1 2.425-1.4zm-52.135 30.1a1.4 1.4 0 1 1-2.426 1.4 1.4 1.4 0 0 1 2.426-1.4zm55.28-22.5a1.4 1.4 0 1 1-2.704.724 1.4 1.4 0 0 1 2.704-.724zm-58.148 15.58a1.4 1.4 0 1 1-2.705.725 1.4 1.4 0 0 1 2.705-.724zm59.22-7.425a1.4 1.4 0 1 1-2.8 0 1.4 1.4 0 0 1 2.8 0zm-60.2 0a1.4 1.4 0 1 1-2.8 0 1.4 1.4 0 0 1 2.8 0zm59.124 8.155a1.4 1.4 0 1 1-2.704-.724 1.4 1.4 0 0 1 2.704.724zm-58.149-15.58a1.4 1.4 0 1 1-2.705-.726 1.4 1.4 0 0 1 2.705.725zm54.999 23.179a1.4 1.4 0 1 1-2.425-1.4 1.4 1.4 0 0 1 2.425 1.4zm-52.135-30.1a1.4 1.4 0 1 1-2.425-1.4 1.4 1.4 0 0 1 2.425 1.4zm47.126 36.624a1.4 1.4 0 1 1-1.98-1.98 1.4 1.4 0 0 1 1.98 1.98zM71.619 71.609a1.4 1.4 0 1 1-1.98-1.98 1.4 1.4 0 0 1 1.98 1.98zm36.04 47.574a1.4 1.4 0 1 1-1.4-2.425 1.4 1.4 0 0 1 1.4 2.425zm-30.1-52.135a1.4 1.4 0 1 1-1.4-2.425 1.4 1.4 0 0 1 1.4 2.425zm22.5 55.28a1.4 1.4 0 1 1-.724-2.704 1.4 1.4 0 0 1 .724 2.704zM84.48 64.18a1.4 1.4 0 1 1-.725-2.705 1.4 1.4 0 0 1 .724 2.705z" clip-path="url(&quot;#zjbma&quot;)"/></g><g><path fill="#030303" d="M74 93v-2h17V68h2v25z"/><path fill="none" stroke="#fff" stroke-miterlimit="20" stroke-width="6" d="M74 93v-2h17V68h2v25z" clip-path="url(&quot;#zjbmb&quot;)"/></g><g><path fill="#030303" d="M92.021 88.5a3.5 3.5 0 1 1 0 7 3.5 3.5 0 0 1 0-7z"/><path fill="none" stroke="#fff" stroke-miterlimit="20" stroke-width="6" d="M92.021 88.5a3.5 3.5 0 1 1 0 7 3.5 3.5 0 0 1 0-7z" clip-path="url(&quot;#zjbmc&quot;)"/></g></g></svg>